# xmcd CD database file
#
# Track frame offsets:
#	183
#	20785
#	57853
#	85045
#	116870
#	146548
#	196015
#	231650
#
# Disc length: 3475 seconds
#
# Revision: 0
# Processed by: cddbd v1.5PL3 Copyright (c) Steve Scherf et al.
# Submitted via: CDex 1.50beta10
#
DISCID=6d0d9108
DTITLE=Joe Hughes - Live At Vredenburg CD 1
DYEAR=1993
DGENRE=Blues
TTITLE0=Cleo's Back
TTITLE1=Don't Throw Your love On Me So Strong
TTITLE2=Down Home Blues
TTITLE3=Hoochie Coochie Man
TTITLE4=Drivin' Wheel
TTITLE5=Joe's Blues Stew
TTITLE6=Blues Man's Guitar
TTITLE7=Boogie Chillun
EXTD=YEAR: 1993
EXTT0=
EXTT1=
EXTT2=
EXTT3=
EXTT4=
EXTT5=
EXTT6=
EXTT7=
PLAYORDER=
